<svg width="48" height="48" viewBox="0 0 48 48" fill="none" xmlns="http://www.w3.org/2000/svg">
<g id="WhatsApp">
<path id="Container" d="M0 16.1C0 10.4051 0 7.55764 1.12587 5.39026C2.07462 3.56382 3.56382 2.07462 5.39026 1.12587C7.55764 0 10.4051 0 16.1 0H31.9C37.5949 0 40.4424 0 42.6097 1.12587C44.4362 2.07462 45.9254 3.56382 46.8741 5.39026C48 7.55764 48 10.4051 48 16.1V31.9C48 37.5949 48 40.4424 46.8741 42.6097C45.9254 44.4362 44.4362 45.9254 42.6097 46.8741C40.4424 48 37.5949 48 31.9 48H16.1C10.4051 48 7.55764 48 5.39026 46.8741C3.56382 45.9254 2.07462 44.4362 1.12587 42.6097C0 40.4424 0 37.5949 0 31.9V16.1Z" fill="url(#paint0_linear_112_984)"/>
<path id="Vector" fill-rule="evenodd" clip-rule="evenodd" d="M25.3938 6.5924C29.6426 6.80121 33.6016 8.55326 36.6254 11.5791C39.8508 14.8066 41.6262 19.0967 41.6245 23.6591C41.6206 33.0739 33.9561 40.7343 24.5407 40.7343H24.5336C21.6743 40.7333 18.8649 40.0163 16.3696 38.6559L7.31317 41.0304L9.73689 32.182C8.24186 29.5925 7.45519 26.6551 7.45642 23.6455C7.4602 14.2309 15.124 6.57129 24.5404 6.57129L25.3938 6.5924ZM16.7892 35.5647L17.3078 35.8722C19.4879 37.1654 21.9869 37.8495 24.5348 37.8505H24.5406C32.367 37.8505 38.7368 31.4837 38.7399 23.6581C38.7414 19.8659 37.2659 16.3001 34.585 13.6175C31.904 10.9348 28.3389 9.45652 24.5463 9.45529C16.7139 9.45529 10.344 15.8215 10.3409 23.6465C10.3398 26.3283 11.0905 28.9399 12.5119 31.1995L12.8495 31.7365L11.415 36.9737L16.7892 35.5647ZM33.1473 27.7195C33.0407 27.5414 32.7561 27.4347 32.3293 27.2212C31.9024 27.0076 29.8037 25.9754 29.4124 25.8329C29.0212 25.6907 28.7365 25.6196 28.452 26.0466C28.1675 26.4737 27.3494 27.4347 27.1003 27.7195C26.8514 28.0042 26.6024 28.0399 26.1756 27.8263C25.7487 27.6128 24.3733 27.1622 22.7428 25.7086C21.4738 24.5773 20.6171 23.1802 20.3681 22.753C20.1191 22.326 20.3415 22.095 20.5552 21.8823C20.7473 21.6911 20.9822 21.3839 21.1956 21.1348C21.409 20.8857 21.4801 20.7076 21.6225 20.423C21.7647 20.1382 21.6936 19.8891 21.5869 19.6756C21.4801 19.4619 20.6265 17.3618 20.2708 16.5075C19.9242 15.6756 19.5723 15.7883 19.3103 15.7751C19.0616 15.7628 18.7767 15.7601 18.4922 15.7601C18.2076 15.7601 17.7451 15.8668 17.3539 16.294C16.9626 16.7211 15.8598 17.7534 15.8598 19.8533C15.8598 21.9535 17.3894 23.9821 17.6029 24.2669C17.8163 24.5518 20.6129 28.8611 24.895 30.7093C25.9134 31.149 26.7086 31.4114 27.3285 31.6081C28.3511 31.9328 29.2816 31.887 30.0172 31.7771C30.8373 31.6546 32.5427 30.745 32.8984 29.7485C33.2541 28.7517 33.2541 27.8975 33.1473 27.7195Z" fill="white"/>
</g>
<defs>
<linearGradient id="paint0_linear_112_984" x1="24" y1="48" x2="24" y2="0" gradientUnits="userSpaceOnUse">
<stop stop-color="#25CF43"/>
<stop offset="1" stop-color="#61FD7D"/>
</linearGradient>
</defs>
</svg>
